<?xml version="1.0"?>
<svg xmlns="http://www.w3.org/2000/svg" viewBox="0 0 16 16">
    <path style="line-height:normal;text-indent:0;text-align:start;text-decoration-line:none;text-decoration-style:solid;text-decoration-color:#000;text-transform:none;block-progression:tb;isolation:auto;mix-blend-mode:normal" d="M 8 1 C 5.796781 1 4 2.796781 4 5 L 4 6 L 3.5 6 C 2.6774686 6 2 6.6774686 2 7.5 L 2 12.5 C 2 13.322531 2.6774686 14 3.5 14 L 12.5 14 C 13.322531 14 14 13.322531 14 12.5 L 14 7.5 C 14 6.6774686 13.322531 6 12.5 6 L 12 6 L 12 5 C 12 2.796781 10.203219 1 8 1 z M 8 2 C 9.662781 2 11 3.337219 11 5 L 11 6 L 5 6 L 5 5 C 5 3.337219 6.337219 2 8 2 z M 3.5 7 L 4 7 L 5 7 L 11 7 L 12 7 L 12.5 7 C 12.781469 7 13 7.2185314 13 7.5 L 13 12.5 C 13 12.781469 12.781469 13 12.5 13 L 3.5 13 C 3.2185314 13 3 12.781469 3 12.5 L 3 7.5 C 3 7.2185314 3.2185314 7 3.5 7 z" font-weight="400" font-family="sans-serif" white-space="normal" overflow="visible"/>
</svg>
